<svg xmlns="http://www.w3.org/2000/svg" width="20.406" height="20.406" viewBox="0 0 20.406 20.406"><defs><style>.a{fill:#fbbb00;}.b{fill:#518ef8;}.c{fill:#28b446;}.d{fill:#f14336;}</style></defs><path class="a" d="M4.522,145.089l-.71,2.652-2.6.055a10.221,10.221,0,0,1-.075-9.528h0l2.311.424,1.013,2.3a6.089,6.089,0,0,0,.057,4.1Z" transform="translate(0 -132.757)"/><path class="b" d="M271.429,208.176a10.2,10.2,0,0,1-3.637,9.863h0l-2.911-.149-.412-2.572a6.081,6.081,0,0,0,2.616-3.105h-5.456v-4.036h9.8Z" transform="translate(-251.201 -199.879)"/><path class="c" d="M45.883,315.237h0a10.206,10.206,0,0,1-15.375-3.121l3.306-2.707a6.068,6.068,0,0,0,8.744,3.107Z" transform="translate(-29.293 -297.077)"/><path class="d" d="M44.2,2.349,40.894,5.055a6.067,6.067,0,0,0-8.945,3.177L28.625,5.511h0A10.205,10.205,0,0,1,44.2,2.349Z" transform="translate(-27.483)"/></svg>